<?xml version="1.0" encoding="UTF-8"?>
<svg width="16px" height="16px" viewBox="0 0 16 16" version="1.1" xmlns="http://www.w3.org/2000/svg" xmlns:xlink="http://www.w3.org/1999/xlink">
    <!-- Generator: Sketch 59.1 (86144) - https://sketch.com -->
    <title>info-box</title>
    <desc>Created with Sketch.</desc>
    <g id="desktop-main" stroke="none" stroke-width="1" fill="none" fill-rule="evenodd">
        <g id="3.0---detailpage" transform="translate(-965.000000, -468.000000)">
            <g id="rechts" transform="translate(740.000000, 204.000000)">
                <g id="in3" transform="translate(3.000000, 260.000000)">
                    <g id="info-box" transform="translate(222.000000, 4.000000)">
                        <circle id="Oval" fill="#A4A4A4" fill-rule="evenodd" cx="8" cy="8" r="8"></circle>
                        <path d="M9.35638021,11.7959635 L9.26360677,12.1917969 C8.8842646,12.3443584 8.58120773,12.4505314 8.35442708,12.510319 C8.12764644,12.5701066 7.93385497,12.6 7.77304688,12.6 C7.44318411,12.6 7.19579076,12.5144431 7.03085938,12.3433268 C6.86592799,12.1722105 6.78346354,11.9608954 6.78346354,11.709375 C6.78346354,11.6145395 6.79170999,11.5155821 6.80820313,11.4125 L6.84067379,11.2377768 C6.85407436,11.1728355 6.87005199,11.101194 6.88860677,11.0228516 L7.54420573,8.39427083 L7.6088035,8.09189835 L7.6088035,8.09189835 L7.64007161,7.93040365 C7.67099625,7.76547227 7.68645833,7.6252827 7.68645833,7.50983073 C7.68645833,7.2789268 7.64831852,7.12533675 7.57203776,7.04905599 C7.495757,6.97277523 7.34010534,6.93463542 7.10507813,6.93463542 C7.03704393,6.93463542 6.95219548,6.94275301 6.85053126,6.95898838 L6.74326172,6.97792969 C6.59276183,7.00679268 6.47834241,7.03153201 6.4,7.05214844 L6.49277344,6.6563151 C6.81438963,6.51200015 7.10301521,6.40479636 7.35865885,6.33470052 C7.61430249,6.26460468 7.8163404,6.22955729 7.96477865,6.22955729 C8.30288798,6.22955729 8.54821972,6.30996013 8.70078125,6.47076823 C8.85334278,6.63157632 8.9296224,6.84804551 8.9296224,7.12018229 C8.9296224,7.19440141 8.92137595,7.29542037 8.90488281,7.42324219 C8.88838967,7.55106401 8.86365034,7.67888391 8.83066406,7.80670573 L8.16888021,10.4352865 C8.12764736,10.5960946 8.09156917,10.7538078 8.06064453,10.908431 C8.0297199,11.0630542 8.01425781,11.1898433 8.01425781,11.2888021 C8.01425781,11.5238293 8.0668289,11.684635 8.17197266,11.771224 C8.27711641,11.8578129 8.44719935,11.9011068 8.68222656,11.9011068 L8.82525215,11.8933757 C8.88143148,11.8882216 8.94611509,11.8804905 9.01930339,11.8701823 C9.16567999,11.8495659 9.2780378,11.8248265 9.35638021,11.7959635 Z M9.79550781,3.89166667 C9.79550781,4.12669388 9.71922819,4.33182421 9.56666667,4.5070638 C9.41410514,4.68230339 9.2244369,4.76992188 8.99765625,4.76992188 C8.78736874,4.76992188 8.60594694,4.68642662 8.45338542,4.51943359 C8.30082389,4.35244057 8.22454427,4.16174152 8.22454427,3.94733073 C8.22454427,3.72055008 8.30082389,3.52263539 8.45338542,3.35358073 C8.60594694,3.18452606 8.78736874,3.1 8.99765625,3.1 C9.23268347,3.1 9.42441332,3.17937204 9.57285156,3.33811849 C9.7212898,3.49686494 9.79550781,3.68137916 9.79550781,3.89166667 Z" id="i" fill="#FFFFFF" fill-rule="nonzero"></path>
                    </g>
                </g>
            </g>
        </g>
    </g>
</svg>